<svg xmlns="http://www.w3.org/2000/svg" width="372" height="338" viewBox="0 0 372 338"><rect x="0" y="0" width="372" height="338" fill="white"/><rect x="16" y="16" width="340" height="34" fill="#e9e9e9" stroke="#111" stroke-width="1.6"/><text x="186.0" y="38.6" font-family="Arial, Helvetica, sans-serif" font-size="16" font-weight="bold" text-anchor="middle" fill="#111">Monday Schedule</text><rect x="16" y="50" width="90" height="34" fill="white" stroke="#111" stroke-width="1.6"/><text x="61.0" y="72.6" font-family="Arial, Helvetica, sans-serif" font-size="16" font-weight="normal" text-anchor="middle" fill="#111">9:00</text><rect x="106" y="50" width="250" height="34" fill="white" stroke="#111" stroke-width="1.6"/><text x="118" y="72.6" font-family="Arial, Helvetica, sans-serif" font-size="16" font-weight="normal" text-anchor="start" fill="#111">Court hearing</text><rect x="16" y="84" width="90" height="34" fill="white" stroke="#111" stroke-width="1.6"/><text x="61.0" y="106.6" font-family="Arial, Helvetica, sans-serif" font-size="16" font-weight="normal" text-anchor="middle" fill="#111">10:00</text><rect x="106" y="84" width="250" height="34" fill="white" stroke="#111" stroke-width="1.6"/><rect x="16" y="118" width="90" height="34" fill="white" stroke="#111" stroke-width="1.6"/><text x="61.0" y="140.6" font-family="Arial, Helvetica, sans-serif" font-size="16" font-weight="normal" text-anchor="middle" fill="#111">11:00</text><rect x="106" y="118" width="250" height="34" fill="white" stroke="#111" stroke-width="1.6"/><text x="118" y="140.6" font-family="Arial, Helvetica, sans-serif" font-size="16" font-weight="normal" text-anchor="start" fill="#111">Marketing meeting</text><rect x="16" y="152" width="90" height="34" fill="white" stroke="#111" stroke-width="1.6"/><text x="61.0" y="174.6" font-family="Arial, Helvetica, sans-serif" font-size="16" font-weight="normal" text-anchor="middle" fill="#111">12:00</text><rect x="106" y="152" width="250" height="34" fill="white" stroke="#111" stroke-width="1.6"/><text x="118" y="174.6" font-family="Arial, Helvetica, sans-serif" font-size="16" font-weight="normal" text-anchor="start" fill="#111">Lunch</text><rect x="16" y="186" width="90" height="34" fill="white" stroke="#111" stroke-width="1.6"/><text x="61.0" y="208.6" font-family="Arial, Helvetica, sans-serif" font-size="16" font-weight="normal" text-anchor="middle" fill="#111">13:00</text><rect x="106" y="186" width="250" height="34" fill="white" stroke="#111" stroke-width="1.6"/><rect x="16" y="220" width="90" height="34" fill="white" stroke="#111" stroke-width="1.6"/><text x="61.0" y="242.6" font-family="Arial, Helvetica, sans-serif" font-size="16" font-weight="normal" text-anchor="middle" fill="#111">14:00</text><rect x="106" y="220" width="250" height="34" fill="white" stroke="#111" stroke-width="1.6"/><text x="118" y="242.6" font-family="Arial, Helvetica, sans-serif" font-size="16" font-weight="normal" text-anchor="start" fill="#111">Strategy meeting</text><rect x="16" y="254" width="90" height="34" fill="white" stroke="#111" stroke-width="1.6"/><text x="61.0" y="276.6" font-family="Arial, Helvetica, sans-serif" font-size="16" font-weight="normal" text-anchor="middle" fill="#111">15:00</text><rect x="106" y="254" width="250" height="34" fill="white" stroke="#111" stroke-width="1.6"/><rect x="16" y="288" width="90" height="34" fill="white" stroke="#111" stroke-width="1.6"/><text x="61.0" y="310.6" font-family="Arial, Helvetica, sans-serif" font-size="16" font-weight="normal" text-anchor="middle" fill="#111">16:00</text><rect x="106" y="288" width="250" height="34" fill="white" stroke="#111" stroke-width="1.6"/><text x="118" y="310.6" font-family="Arial, Helvetica, sans-serif" font-size="16" font-weight="normal" text-anchor="start" fill="#111">Client consultation</text><rect x="16" y="16" width="340" height="306" fill="none" stroke="#111" stroke-width="2.4"/></svg>