<svg xmlns="http://www.w3.org/2000/svg" width="470" height="330" viewBox="0 0 470 330"><rect x="0" y="0" width="470" height="330" fill="white"/><line x1="24" y1="36" x2="24" y2="298" stroke="#111" stroke-width="1.8"/><line x1="444" y1="36" x2="444" y2="298" stroke="#111" stroke-width="1.8"/><path d="M24 36 a8.5 5 0 0 0 17 0 a8.5 5 0 0 0 17 0 a8.5 5 0 0 0 17 0 a8.5 5 0 0 0 17 0 a8.5 5 0 0 0 17 0 a8.5 5 0 0 0 17 0 a8.5 5 0 0 0 17 0 a8.5 5 0 0 0 17 0 a8.5 5 0 0 0 17 0 a8.5 5 0 0 0 17 0 a8.5 5 0 0 0 17 0 a8.5 5 0 0 0 17 0 a8.5 5 0 0 0 17 0 a8.5 5 0 0 0 17 0 a8.5 5 0 0 0 17 0 a8.5 5 0 0 0 17 0 a8.5 5 0 0 0 17 0 a8.5 5 0 0 0 17 0 a8.5 5 0 0 0 17 0 a8.5 5 0 0 0 17 0 a8.5 5 0 0 0 17 0 a8.5 5 0 0 0 17 0 a8.5 5 0 0 0 17 0 a8.5 5 0 0 0 17 0 L444 36" fill="none" stroke="#111" stroke-width="1.8"/><path d="M24 298 a8.5 5 0 0 1 17 0 a8.5 5 0 0 1 17 0 a8.5 5 0 0 1 17 0 a8.5 5 0 0 1 17 0 a8.5 5 0 0 1 17 0 a8.5 5 0 0 1 17 0 a8.5 5 0 0 1 17 0 a8.5 5 0 0 1 17 0 a8.5 5 0 0 1 17 0 a8.5 5 0 0 1 17 0 a8.5 5 0 0 1 17 0 a8.5 5 0 0 1 17 0 a8.5 5 0 0 1 17 0 a8.5 5 0 0 1 17 0 a8.5 5 0 0 1 17 0 a8.5 5 0 0 1 17 0 a8.5 5 0 0 1 17 0 a8.5 5 0 0 1 17 0 a8.5 5 0 0 1 17 0 a8.5 5 0 0 1 17 0 a8.5 5 0 0 1 17 0 a8.5 5 0 0 1 17 0 a8.5 5 0 0 1 17 0 a8.5 5 0 0 1 17 0 L444 298" fill="none" stroke="#111" stroke-width="1.8"/><text x="46" y="80" font-family="Arial, Helvetica, sans-serif" font-size="20" font-weight="bold" text-anchor="start" fill="#111">SALES RECEIPT</text><line x1="42" y1="96" x2="426" y2="96" stroke="#111" stroke-width="1.4"/><text x="46" y="122" font-family="Arial, Helvetica, sans-serif" font-size="17" font-weight="normal" text-anchor="start" fill="#111">Decorative Vase</text><text x="422" y="122" font-family="Arial, Helvetica, sans-serif" font-size="17" font-weight="normal" text-anchor="end" fill="#111">$74.99</text><line x1="42" y1="132" x2="426" y2="132" stroke="#111" stroke-width="1.4"/><text x="46" y="158" font-family="Arial, Helvetica, sans-serif" font-size="17" font-weight="normal" text-anchor="start" fill="#111">Bed Sheet</text><text x="422" y="158" font-family="Arial, Helvetica, sans-serif" font-size="17" font-weight="normal" text-anchor="end" fill="#111">$19.95</text><line x1="42" y1="168" x2="426" y2="168" stroke="#111" stroke-width="1.4"/><text x="46" y="194" font-family="Arial, Helvetica, sans-serif" font-size="17" font-weight="normal" text-anchor="start" fill="#111">Window Blind</text><text x="422" y="194" font-family="Arial, Helvetica, sans-serif" font-size="17" font-weight="normal" text-anchor="end" fill="#111">$149.99</text><line x1="42" y1="204" x2="426" y2="204" stroke="#111" stroke-width="1.4"/><text x="46" y="230" font-family="Arial, Helvetica, sans-serif" font-size="17" font-weight="normal" text-anchor="start" fill="#111">Table Cloth</text><text x="422" y="230" font-family="Arial, Helvetica, sans-serif" font-size="17" font-weight="normal" text-anchor="end" fill="#111">$21.85</text><line x1="42" y1="240" x2="426" y2="240" stroke="#111" stroke-width="2.6"/><text x="46" y="268" font-family="Arial, Helvetica, sans-serif" font-size="17" font-weight="bold" text-anchor="start" fill="#111">Total</text><text x="98" y="268" font-family="Arial, Helvetica, sans-serif" font-size="17" font-weight="normal" text-anchor="start" fill="#111">(Paid by Credit Card)</text><text x="422" y="268" font-family="Arial, Helvetica, sans-serif" font-size="17" font-weight="normal" text-anchor="end" fill="#111">$266.78</text></svg>